HIERARCHY
ROOT Hips
{
  OFFSET -30.0536 87.9497 -126.568
  CHANNELS 6 Xposition Yposition Zposition Zrotation Xrotation Yrotation
  JOINT LeftUpLeg
  {
    OFFSET 9.63379 -0.250344 0
    CHANNELS 6 Xposition Yposition Zposition Zrotation Xrotation Yrotation
    JOINT LeftLeg
    {
      OFFSET 0 -40.4779 -1.71313
      CHANNELS 6 Xposition Yposition Zposition Zrotation Xrotation Yrotation
      JOINT LeftFoot
      {
        OFFSET 0.0126047 -40.4416 -0.864524
        CHANNELS 6 Xposition Yposition Zposition Zrotation Xrotation Yrotation
        JOINT LeftToeBase
        {
          OFFSET -0.183287 -12.1867 8.28226
          CHANNELS 6 Xposition Yposition Zposition Zrotation Xrotation Yrotation
          End Site
          {
            OFFSET 0 0 9.15615
          }
        }
      }
    }
  }
  JOINT RightUpLeg
  {
    OFFSET -9.63379 -0.250344 0
    CHANNELS 6 Xposition Yposition Zposition Zrotation Xrotation Yrotation
    JOINT RightLeg
    {
      OFFSET 0 -40.478 -1.71313
      CHANNELS 6 Xposition Yposition Zposition Zrotation Xrotation Yrotation
      JOINT RightFoot
      {
        OFFSET -0.0126047 -40.4414 -0.864524
        CHANNELS 6 Xposition Yposition Zposition Zrotation Xrotation Yrotation
        JOINT RightToeBase
        {
          OFFSET 0.183287 -12.1867 8.28226
          CHANNELS 6 Xposition Yposition Zposition Zrotation Xrotation Yrotation
          End Site
          {
            OFFSET 0.00319481 0 9.156
          }
        }
      }
    }
  }
  JOINT Spine
  {
    OFFSET 0 5.60909 -1.89659
    CHANNELS 6 Xposition Yposition Zposition Zrotation Xrotation Yrotation
    JOINT Spine1
    {
      OFFSET 0 6.56349 1.09934
      CHANNELS 6 Xposition Yposition Zposition Zrotation Xrotation Yrotation
      JOINT Spine2
      {
        OFFSET 0 7.57662 1.04304
        CHANNELS 6 Xposition Yposition Zposition Zrotation Xrotation Yrotation
        JOINT Spine3
        {
          OFFSET 0 8.29213 0.399731
          CHANNELS 6 Xposition Yposition Zposition Zrotation Xrotation Yrotation
          JOINT Spine4
          {
            OFFSET 0 8.9581 -0.526302
            CHANNELS 6 Xposition Yposition Zposition Zrotation Xrotation Yrotation
            JOINT Neck
            {
              OFFSET 0 18.4163 -4.35419
              CHANNELS 6 Xposition Yposition Zposition Zrotation Xrotation Yrotation
              JOINT Head
              {
                OFFSET 0 8.97127 1.78542
                CHANNELS 6 Xposition Yposition Zposition Zrotation Xrotation Yrotation
                End Site
                {
                  OFFSET 0 0 0
                }
              }
            }
            JOINT LeftShoulder
            {
              OFFSET 6.14423 15.3316 -3.79324
              CHANNELS 6 Xposition Yposition Zposition Zrotation Xrotation Yrotation
              JOINT LeftArm
              {
                OFFSET 9.01906 -1.11411 -1.79347
                CHANNELS 6 Xposition Yposition Zposition Zrotation Xrotation Yrotation
                JOINT LeftForeArm
                {
                  OFFSET 27.687 0 0
                  CHANNELS 6 Xposition Yposition Zposition Zrotation Xrotation Yrotation
                  JOINT LeftHand
                  {
                    OFFSET 27.8738 0 0
                    CHANNELS 6 Xposition Yposition Zposition Zrotation Xrotation Yrotation
                    End Site
                    {
                      OFFSET 0 0 0
                    }
                  }
                }
              }
            }
            JOINT RightShoulder
            {
              OFFSET -6.14423 15.3316 -3.79324
              CHANNELS 6 Xposition Yposition Zposition Zrotation Xrotation Yrotation
              JOINT RightArm
              {
                OFFSET -9.01884 -1.11411 -1.79347
                CHANNELS 6 Xposition Yposition Zposition Zrotation Xrotation Yrotation
                JOINT RightForeArm
                {
                  OFFSET -27.0381 0.00109999 0
                  CHANNELS 6 Xposition Yposition Zposition Zrotation Xrotation Yrotation
                  JOINT RightHand
                  {
                    OFFSET -28.5227 0 0
                    CHANNELS 6 Xposition Yposition Zposition Zrotation Xrotation Yrotation
                    End Site
                    {
                      OFFSET 0 0 0
                    }
                  }
                }
              }
            }
          }
        }
      }
    }
  }
}
MOTION
Frames:	9
Frame Time:	0.00833333
-22.0122 88.3489 -201.975 -5.64567 13.8328 4.112 9.63379 -0.250344 -7.15256e-007 2.73031 -1.3845 9.778 0 -40.4779 -1.71313 -1.76398 4.74353 0.26533 0.0126047 -40.4416 -0.864524 0.108409 1.6619 -0.000900119 -0.183287 -12.1867 8.28226 1.70565e-011 -4.43765e-011 -5.82837e-011 -9.63379 -0.250344 -7.15256e-007 4.54729 -37.416 -4.90124 0 -40.478 -1.71313 5.44916 7.71474 2.57047 -0.0126047 -40.4414 -0.864524 -0.124137 -6.39603 0.00045219 0.183287 -12.1867 8.28226 -8.64351e-012 2.42533e-011 2.08613e-011 -2.64698e-023 5.60909 -1.89659 1.38167 -0.319283 -0.669133 0 6.56349 1.09934 0.583767 -0.763071 -1.78561 0 7.57662 1.04304 0.581987 -0.76245 -1.78648 0 8.29213 0.399731 0.580177 -0.761894 -1.78733 0 8.9581 -0.526302 0.578338 -0.761403 -1.78816 0 18.4163 -4.35419 4.201 -15.0161 -0.548507 1.05879e-022 8.97127 1.78542 5.95012 -2.07234 -1.04732 6.14423 15.3316 -3.79324 -30.4029 2.98728 -4.6783 9.01906 -1.11411 -1.79347 -57.8484 -0.882469 -21.7083 27.687 0 0 7.21595 44.4133 -5.15614e-011 27.8738 0 0 1.66069 -2.07189 -8.92651 -6.14423 15.3316 -3.79324 37.4456 3.22365 3.88372 -9.01884 -1.11411 -1.79347 38.5532 13.105 15.4526 -27.0381 0.00109999 5.96046e-008 1.14131 1.26608 1.26239e-007 -28.5227 0 0 -13.5742 -1.53572 4.92095 
-22.0241 88.2538 -201.291 -5.62894 13.9506 4.26501 9.63379 -0.250344 -7.15256e-007 2.7689 -1.17313 9.86299 0 -40.4779 -1.71313 -1.75956 4.88738 0.274168 0.0126047 -40.4416 -0.864524 0.116864 1.71758 -0.000900145 -0.183287 -12.1867 8.28226 1.70565e-011 -4.43765e-011 -5.82837e-011 -9.63379 -0.250344 -7.15256e-007 4.24217 -37.5236 -5.49136 0 -40.478 -1.71313 5.65413 7.64071 2.44365 -0.0126047 -40.4414 -0.864524 -0.102925 -6.43625 0.000452226 0.183287 -12.1867 8.28226 -8.64351e-012 2.42533e-011 2.08613e-011 -2.64698e-023 5.60909 -1.89659 1.36022 -0.332973 -0.670652 0 6.56349 1.09934 0.579454 -0.792276 -1.79717 0 7.57662 1.04304 0.57764 -0.791664 -1.79805 0 8.29213 0.399731 0.575794 -0.791117 -1.79891 0 8.9581 -0.526302 0.57392 -0.790637 -1.79974 0 18.4163 -4.35419 4.04682 -15.0523 -0.66402 1.05879e-022 8.97127 1.78542 5.9579 -2.07692 -1.18513 6.14423 15.3316 -3.79324 -30.455 2.97214 -4.62554 9.01906 -1.11411 -1.79347 -57.7975 -0.85897 -21.7358 27.687 0 0 7.19605 44.3956 -5.15458e-011 27.8738 0 0 1.66678 -2.06931 -8.91547 -6.14423 15.3316 -3.79324 37.4335 3.19883 3.82922 -9.01884 -1.11411 -1.79347 38.6086 13.0221 15.266 -27.0381 0.00109999 5.96046e-008 1.11476 1.20321 1.26236e-007 -28.5227 0 0 -13.5534 -1.54191 5.02517 
-22.0355 88.1585 -200.589 -5.62041 14.0494 4.39302 9.63379 -0.250344 -7.15256e-007 2.82891 -0.94714 9.96751 0 -40.4779 -1.71313 -1.75244 5.0614 0.281111 0.0126047 -40.4416 -0.864524 0.125799 1.77906 -0.000900175 -0.183287 -12.1867 8.28226 1.70565e-011 -4.43765e-011 -5.82837e-011 -9.63379 -0.250344 -7.15256e-007 3.93859 -37.5029 -6.13599 0 -40.478 -1.71313 5.8732 7.56163 2.24184 -0.0126047 -40.4414 -0.864524 -0.0614739 -6.25187 0.000452064 0.183287 -12.1867 8.28226 -8.64351e-012 2.42533e-011 2.08613e-011 -2.64698e-023 5.60909 -1.89659 1.32872 -0.347082 -0.668677 0 6.56349 1.09934 0.579457 -0.820914 -1.79754 0 7.57662 1.04304 0.577638 -0.820321 -1.79843 0 8.29213 0.399731 0.575787 -0.819794 -1.79929 0 8.9581 -0.526302 0.573908 -0.819333 -1.80013 0 18.4163 -4.35419 3.86191 -15.0869 -0.779708 1.05879e-022 8.97127 1.78542 5.99309 -2.05383 -1.33531 6.14423 15.3316 -3.79324 -30.5175 2.95668 -4.56956 9.01906 -1.11411 -1.79347 -57.7282 -0.83598 -21.7547 27.687 0 0 7.17155 44.3655 -5.15193e-011 27.8738 0 0 1.67274 -2.06518 -8.88185 -6.14423 15.3316 -3.79324 37.4339 3.17435 3.77318 -9.01884 -1.11411 -1.79347 38.6656 12.9216 15.0548 -27.0381 0.00109999 5.96046e-008 1.08093 1.13384 1.26233e-007 -28.5227 0 0 -13.5432 -1.55048 5.1356 
-22.0464 88.0686 -199.869 -5.62609 14.1246 4.48558 9.63379 -0.250344 -7.15256e-007 2.9064 -0.704207 10.0811 0 -40.4779 -1.71313 -1.73536 5.26729 0.28524 0.0126047 -40.4416 -0.864524 0.13434 1.84769 -0.000900209 -0.183287 -12.1867 8.28226 1.70565e-011 -4.43765e-011 -5.82837e-011 -9.63379 -0.250344 -7.15256e-007 3.68703 -37.3773 -6.71825 0 -40.478 -1.71313 6.10197 7.47808 1.99546 -0.0126047 -40.4414 -0.864524 -0.0103864 -5.93477 0.000451797 0.183287 -12.1867 8.28226 -8.64351e-012 2.42533e-011 2.08613e-011 -2.64698e-023 5.60909 -1.89659 1.29447 -0.359557 -0.663538 0 6.56349 1.09934 0.584677 -0.845344 -1.78702 0 7.57662 1.04304 0.582876 -0.844778 -1.7879 0 8.29213 0.399731 0.581043 -0.844275 -1.78876 0 8.9581 -0.526302 0.579184 -0.843839 -1.7896 0 18.4163 -4.35419 3.65126 -15.1282 -0.891628 1.05879e-022 8.97127 1.78542 6.04249 -2.01993 -1.48963 6.14423 15.3316 -3.79324 -30.593 2.94072 -4.50961 9.01906 -1.11411 -1.79347 -57.6382 -0.814835 -21.7692 27.687 0 0 7.14505 44.3139 -5.1474e-011 27.8738 0 0 1.67843 -2.06044 -8.83849 -6.14423 15.3316 -3.79324 37.4433 3.15209 3.72063 -9.01884 -1.11411 -1.79347 38.7163 12.8179 14.8446 -27.0381 0.00109999 5.96046e-008 1.04778 1.06482 1.2623e-007 -28.5227 0 0 -13.5439 -1.56021 5.23813 
-22.0571 87.9899 -199.128 -5.65197 14.1717 4.53225 9.63379 -0.250344 -7.15256e-007 2.99754 -0.442004 10.1931 0 -40.4779 -1.71313 -1.7011 5.50673 0.285636 0.0126047 -40.4416 -0.864524 0.141617 1.92484 -0.000900249 -0.183287 -12.1867 8.28226 1.70565e-011 -4.43765e-011 -5.82837e-011 -9.63379 -0.250344 -7.15256e-007 3.53537 -37.1727 -7.12303 0 -40.478 -1.71313 6.33619 7.39068 1.7349 -0.0126047 -40.4414 -0.864524 0.0397368 -5.57686 0.000451513 0.183287 -12.1867 8.28226 -8.64351e-012 2.42533e-011 2.08613e-011 -2.64698e-023 5.60909 -1.89659 1.26477 -0.36835 -0.655564 0 6.56349 1.09934 0.596009 -0.861925 -1.76587 0 7.57662 1.04304 0.594241 -0.861387 -1.76676 0 8.29213 0.399731 0.592444 -0.860912 -1.76761 0 8.9581 -0.526302 0.590619 -0.860501 -1.76845 0 18.4163 -4.35419 3.41978 -15.1847 -0.995853 1.05879e-022 8.97127 1.78542 6.09274 -1.99213 -1.63992 6.14423 15.3316 -3.79324 -30.6841 2.9241 -4.44491 9.01906 -1.11411 -1.79347 -57.5253 -0.796875 -21.7834 27.687 0 0 7.11913 44.2318 -5.14021e-011 27.8738 0 0 1.68377 -2.05601 -8.79821 -6.14423 15.3316 -3.79324 37.4582 3.13398 3.67659 -9.01884 -1.11411 -1.79347 38.7533 12.7258 14.6607 -27.0381 0.00109999 5.96046e-008 1.02326 1.003 1.26228e-007 -28.5227 0 0 -13.5558 -1.56985 5.31864 
-22.0675 87.9281 -198.368 -5.70412 14.1862 4.52261 9.63379 -0.250344 -7.15256e-007 3.0987 -0.158172 10.2932 0 -40.4779 -1.71313 -1.64236 5.78143 0.281375 0.0126047 -40.4416 -0.864524 0.146754 2.01189 -0.000900296 -0.183287 -12.1867 8.28226 1.70565e-011 -4.43765e-011 -5.82837e-011 -9.63379 -0.250344 -7.15256e-007 3.5272 -36.9153 -7.2379 0 -40.478 -1.71313 6.57181 7.30013 1.49052 -0.0126047 -40.4414 -0.864524 0.0782943 -5.27001 0.000451283 0.183287 -12.1867 8.28226 -8.64351e-012 2.42533e-011 2.08613e-011 -2.64698e-023 5.60909 -1.89659 1.24692 -0.371408 -0.645085 0 6.56349 1.09934 0.614335 -0.867016 -1.73438 0 7.57662 1.04304 0.61261 -0.866505 -1.73526 0 8.29213 0.399731 0.610856 -0.866055 -1.73613 0 8.9581 -0.526302 0.609077 -0.865667 -1.73697 0 18.4163 -4.35419 3.17236 -15.2648 -1.08847 1.05879e-022 8.97127 1.78542 6.13025 -1.9873 -1.77797 6.14423 15.3316 -3.79324 -30.7936 2.90663 -4.37472 9.01906 -1.11411 -1.79347 -57.3871 -0.783442 -21.8014 27.687 0 0 7.09637 44.1102 -5.12962e-011 27.8738 0 0 1.68864 -2.05285 -8.77386 -6.14423 15.3316 -3.79324 37.4752 3.12193 3.64611 -9.01884 -1.11411 -1.79347 38.7696 12.66 14.5286 -27.0381 0.00109999 5.96046e-008 1.01531 0.955224 1.26226e-007 -28.5227 0 0 -13.5793 -1.57818 5.363 
-22.0762 87.8827 -197.589 -5.79019 14.1656 4.42862 9.63379 -0.250344 -7.15256e-007 3.21363 0.177372 10.3886 0 -40.4779 -1.71313 -1.56277 6.04885 0.272314 0.0126047 -40.4416 -0.864524 0.14981 2.12369 -0.000900359 -0.183287 -12.1867 8.28226 1.70565e-011 -4.43765e-011 -5.82837e-011 -9.63379 -0.250344 -7.15256e-007 3.69967 -36.5799 -6.98687 0 -40.478 -1.71313 6.82396 7.16952 1.24803 -0.0126047 -40.4414 -0.864524 0.104736 -4.98613 0.000451082 0.183287 -12.1867 8.28226 -8.64351e-012 2.42533e-011 2.08613e-011 -2.64698e-023 5.60909 -1.89659 1.24354 -0.367204 -0.63054 0 6.56349 1.09934 0.641169 -0.857291 -1.68517 0 7.57662 1.04304 0.639505 -0.856807 -1.68607 0 8.29213 0.399731 0.637814 -0.856381 -1.68695 0 8.9581 -0.526302 0.636097 -0.856015 -1.6878 0 18.4163 -4.35419 2.90631 -15.3955 -1.17138 1.05879e-022 8.97127 1.78542 6.15321 -1.99838 -1.90641 6.14423 15.3316 -3.79324 -30.9301 2.88767 -4.29543 9.01906 -1.11411 -1.79347 -57.2093 -0.770836 -21.8349 27.687 0 0 7.07439 43.9417 -5.11506e-011 27.8738 0 0 1.69542 -2.0506 -8.77041 -6.14423 15.3316 -3.79324 37.4974 3.11716 3.63143 -9.01884 -1.11411 -1.79347 38.759 12.6234 14.4597 -27.0381 0.00109999 5.96046e-008 1.02623 0.911436 1.26224e-007 -28.5227 0 0 -13.6215 -1.58568 5.36235 
-22.0832 87.8498 -196.793 -5.90628 14.1131 4.25724 9.63379 -0.250344 -7.15256e-007 3.34444 0.562992 10.4867 0 -40.4779 -1.71313 -1.46709 6.30788 0.259059 0.0126047 -40.4416 -0.864524 0.151367 2.25934 -0.000900441 -0.183287 -12.1867 8.28226 1.70565e-011 -4.43765e-011 -5.82837e-011 -9.63379 -0.250344 -7.15256e-007 4.01516 -36.1479 -6.45025 0 -40.478 -1.71313 7.09462 6.99835 0.98727 -0.0126047 -40.4414 -0.864524 0.126129 -4.66393 0.000450868 0.183287 -12.1867 8.28226 -8.64351e-012 2.42533e-011 2.08613e-011 -2.64698e-023 5.60909 -1.89659 1.24978 -0.357105 -0.611707 0 6.56349 1.09934 0.675882 -0.835178 -1.61808 0 7.57662 1.04304 0.674302 -0.834722 -1.61899 0 8.29213 0.399731 0.672696 -0.834322 -1.61988 0 8.9581 -0.526302 0.671066 -0.833978 -1.62075 0 18.4163 -4.35419 2.61817 -15.5711 -1.24727 1.05879e-022 8.97127 1.78542 6.17057 -2.01409 -2.03069 6.14423 15.3316 -3.79324 -31.0919 2.86733 -4.20755 9.01906 -1.11411 -1.79347 -56.9933 -0.758165 -21.881 27.687 0 0 7.05145 43.7322 -5.09714e-011 27.8738 0 0 1.70418 -2.04865 -8.77932 -6.14423 15.3316 -3.79324 37.5274 3.11841 3.62919 -9.01884 -1.11411 -1.79347 38.7267 12.6062 14.4372 -27.0381 0.00109999 5.96046e-008 1.0507 0.867067 1.26223e-007 -28.5227 0 0 -13.6823 -1.59316 5.32609 
-22.0906 87.8303 -195.975 -6.04124 14.0319 4.05064 9.63379 -0.250344 -7.15256e-007 3.48559 0.953575 10.5764 0 -40.4779 -1.71313 -1.34969 6.62229 0.24181 0.0126047 -40.4416 -0.864524 0.151338 2.39653 -0.000900528 -0.183287 -12.1867 8.28226 1.70565e-011 -4.43765e-011 -5.82837e-011 -9.63379 -0.250344 -7.15256e-007 4.40336 -35.6551 -5.75093 0 -40.478 -1.71313 7.36116 6.84202 0.729677 -0.0126047 -40.4414 -0.864524 0.143299 -4.3456 0.000450671 0.183287 -12.1867 8.28226 -8.64351e-012 2.42533e-011 2.08613e-011 -2.64698e-023 5.60909 -1.89659 1.26167 -0.343402 -0.590932 0 6.56349 1.09934 0.716137 -0.805658 -1.54413 0 7.57662 1.04304 0.71465 -0.805233 -1.54506 0 8.29213 0.399731 0.713138 -0.804859 -1.54597 0 8.9581 -0.526302 0.711604 -0.804537 -1.54685 0 18.4163 -4.35419 2.31189 -15.7513 -1.3133 1.05879e-022 8.97127 1.78542 6.18473 -2.04506 -2.14691 6.14423 15.3316 -3.79324 -31.2659 2.84657 -4.11648 9.01906 -1.11411 -1.79347 -56.7608 -0.750974 -21.9225 27.687 0 0 7.03115 43.493 -5.0769e-011 27.8738 0 0 1.71137 -2.04751 -8.7931 -6.14423 15.3316 -3.79324 37.5601 3.12383 3.63603 -9.01884 -1.11411 -1.79347 38.6824 12.6046 14.4434 -27.0381 0.00109999 5.96046e-008 1.08531 0.837213 1.26222e-007 -28.5227 0 0 -13.7508 -1.59992 5.26753 
